<?xml version="1.0" encoding="iso-8859-1"?>
<!-- Generator: Adobe Illustrator 22.0.0, SVG Export Plug-In . SVG Version: 6.00 Build 0)  -->
<svg xmlns="http://www.w3.org/2000/svg" xmlns:xlink="http://www.w3.org/1999/xlink" version="1.1" id="Layer_1" x="0px" y="0px" viewBox="0 0 60 46" style="enable-background:new 0 0 60 46;" xml:space="preserve" width="512" height="512">
<g id="_x31_-Video">
	<g>
		<path d="M23.648,12.118c-0.074-0.044-0.145-0.059-0.207-0.059c-0.088,0-0.16,0.03-0.205,0.056    c-0.077,0.044-0.207,0.148-0.207,0.355v21.06c0,0.207,0.129,0.312,0.207,0.355c0.077,0.044,0.233,0.102,0.412-0.003l17.819-10.53    c0.175-0.104,0.201-0.265,0.201-0.353s-0.026-0.249-0.201-0.353L23.648,12.118z"/>
		<path d="M53.335,0H6.725C3.033,0,0.03,3.003,0.03,6.695v32.61C0.03,42.996,3.033,46,6.725,46h46.61    c3.692,0,6.695-3.003,6.695-6.695V6.695C60.03,3.003,57.027,0,53.335,0z M42.485,25.074l-17.819,10.53    c-0.383,0.226-0.804,0.339-1.226,0.339c-0.41,0-0.82-0.107-1.195-0.321c-0.761-0.435-1.215-1.217-1.215-2.093v-21.06    c0-0.876,0.454-1.658,1.215-2.093c0.762-0.434,1.666-0.427,2.42,0.019l17.82,10.53c0.741,0.438,1.184,1.213,1.184,2.074    S43.226,24.637,42.485,25.074z"/>
	</g>
</g>

</svg>
